<?xml version="1.0" standalone="no"?>
<!DOCTYPE svg PUBLIC "-//W3C//DTD SVG 20010904//EN"
 "http://www.w3.org/TR/2001/REC-SVG-20010904/DTD/svg10.dtd">
<svg version="1.0" xmlns="http://www.w3.org/2000/svg"
 width="500.000000pt" height="500.000000pt" viewBox="0 0 500.000000 500.000000"
 preserveAspectRatio="xMidYMid meet">
<metadata>
Created by potrace 1.10, written by Peter Selinger 2001-2011
</metadata>
<g transform="translate(0.000000,500.000000) scale(0.100000,-0.100000)"
fill="#000000" stroke="none">
<path d="M2034 4208 c-12 -13 -24 -32 -28 -42 -13 -38 34 -357 76 -516 25 -92
33 -150 22 -150 -5 0 -20 19 -33 43 -77 137 -337 429 -393 442 -39 10 -76 -1
-83 -25 -10 -31 19 -78 120 -190 52 -58 123 -145 157 -193 35 -49 81 -114 103
-145 23 -32 61 -100 85 -152 l45 -95 3 -197 c3 -183 1 -203 -22 -296 -27 -107
-64 -218 -116 -347 -17 -43 -34 -101 -37 -127 -6 -50 -23 -57 -23 -9 0 15 -4
31 -8 37 -5 5 -19 36 -32 69 -13 33 -40 97 -61 141 -167 359 -187 496 -117
810 23 107 17 134 -32 134 -38 0 -55 -19 -95 -105 -44 -93 -69 -212 -61 -287
3 -36 2 -58 -4 -58 -6 0 -10 10 -10 23 0 12 -12 58 -26 102 -36 114 -54 213
-63 353 -8 135 -24 174 -73 180 -87 10 -91 -161 -14 -493 l7 -30 -32 38 c-55
65 -228 207 -252 207 -60 -1 -76 -61 -34 -126 15 -21 97 -104 182 -184 159
-148 213 -209 280 -315 21 -33 51 -75 67 -93 27 -32 37 -62 19 -62 -5 0 -14 7
-21 14 -12 15 -157 108 -240 154 -25 14 -63 37 -85 51 -88 56 -154 77 -188 60
-70 -37 -41 -95 86 -170 316 -186 487 -300 545 -363 53 -58 97 -147 110 -221
6 -33 15 -87 21 -120 6 -33 15 -125 22 -205 6 -80 17 -173 25 -208 8 -35 14
-74 14 -87 0 -12 21 -65 47 -116 76 -153 193 -246 368 -294 133 -36 403 -29
507 12 64 25 58 67 -11 79 -20 3 -80 16 -134 29 -190 46 -364 181 -448 349
l-44 89 -4 131 c-2 76 2 152 8 181 24 103 139 235 301 344 79 53 133 77 234
106 103 29 138 33 341 40 195 6 304 26 367 66 55 36 73 60 56 77 -16 16 -44
15 -115 -2 -45 -11 -188 -27 -277 -31 -27 -1 -9 23 32 43 97 46 263 175 316
245 34 45 41 80 21 101 -9 9 -22 16 -28 16 -7 0 -55 -35 -108 -78 -86 -69
-246 -169 -255 -160 -1 2 17 43 42 91 40 78 50 108 70 213 7 34 -14 64 -45 64
-25 0 -65 -48 -85 -103 -47 -127 -147 -274 -231 -340 -52 -41 -208 -124 -349
-187 -79 -35 -181 -101 -249 -160 -56 -50 -61 -36 -14 47 91 158 190 301 269
389 89 97 307 292 417 373 56 42 161 122 231 179 212 170 281 250 264 305 -9
28 -22 37 -58 37 -22 0 -46 -17 -105 -74 -78 -76 -195 -176 -206 -176 -4 0
-22 -12 -41 -26 -19 -15 -38 -24 -42 -20 -3 4 5 31 20 59 25 50 69 179 103
301 9 33 19 99 22 147 l6 88 -27 11 c-46 17 -77 -8 -103 -82 -32 -89 -61 -190
-79 -278 -45 -214 -136 -355 -428 -660 -50 -52 -98 -106 -107 -120 -26 -40
-33 -16 -14 47 12 42 21 131 30 323 16 319 20 337 130 565 24 50 47 101 50
115 4 14 13 34 19 45 7 11 25 56 39 100 30 89 38 240 15 263 -32 32 -82 -8
-91 -73 -9 -57 -77 -222 -129 -313 -24 -42 -57 -103 -74 -134 -16 -32 -33 -56
-39 -55 -5 2 -13 41 -16 88 -4 46 -16 122 -27 169 -11 47 -26 125 -33 173 -18
133 -67 189 -115 135z"/>
</g>
</svg>
